<svg width="375" height="68" viewBox="0 0 375 68" fill="none" xmlns="http://www.w3.org/2000/svg">
<path d="M18.8301 36.1044V32.3544L33.8301 25.7493V30.0639L23.5602 34.1868L23.6987 33.9631V34.4957L23.5602 34.272L33.8301 38.3949V42.7095L18.8301 36.1044ZM49.6576 29.4567C49.5724 28.5973 49.2066 27.9297 48.5603 27.4538C47.914 26.978 47.0369 26.7401 45.9289 26.7401C45.1761 26.7401 44.5404 26.8466 44.022 27.0597C43.5035 27.2656 43.1058 27.5533 42.8288 27.9226C42.5589 28.2919 42.424 28.7109 42.424 29.1797C42.4098 29.5703 42.4914 29.9112 42.669 30.2024C42.8537 30.4936 43.1058 30.7457 43.4254 30.9588C43.745 31.1648 44.1143 31.3459 44.5333 31.5021C44.9524 31.6513 45.3998 31.7791 45.8757 31.8857L47.8359 32.3544C48.7876 32.5675 49.6612 32.8516 50.4566 33.2067C51.2521 33.5618 51.941 33.9986 52.5234 34.517C53.1058 35.0355 53.5568 35.6463 53.8764 36.3494C54.2031 37.0526 54.37 37.8587 54.3771 38.7678C54.37 40.103 54.0291 41.2607 53.3544 42.2408C52.6868 43.2138 51.7208 43.9702 50.4566 44.5099C49.1995 45.0426 47.6832 45.3089 45.9076 45.3089C44.1463 45.3089 42.6122 45.0391 41.3054 44.4993C40.0056 43.9595 38.99 43.1605 38.2585 42.1023C37.5341 41.0369 37.1541 39.7195 37.1186 38.1499H41.5824C41.6321 38.8814 41.8416 39.4922 42.2109 39.9822C42.5873 40.4652 43.088 40.831 43.713 41.0795C44.3451 41.321 45.0589 41.4418 45.8544 41.4418C46.6356 41.4418 47.3139 41.3281 47.8892 41.1009C48.4716 40.8736 48.9225 40.5575 49.2422 40.1527C49.5618 39.7479 49.7216 39.2827 49.7216 38.7571C49.7216 38.267 49.576 37.8551 49.2848 37.5213C49.0007 37.1875 48.5816 36.9034 48.0277 36.669C47.4808 36.4347 46.8096 36.2216 46.0142 36.0298L43.6385 35.4332C41.799 34.9858 40.3466 34.2862 39.2812 33.3345C38.2159 32.3828 37.6868 31.1009 37.6939 29.4886C37.6868 28.1676 38.0383 27.0135 38.7485 26.0263C39.4659 25.0391 40.4495 24.2685 41.6995 23.7145C42.9495 23.1605 44.37 22.8835 45.9609 22.8835C47.5802 22.8835 48.9936 23.1605 50.201 23.7145C51.4154 24.2685 52.3601 25.0391 53.0348 26.0263C53.7095 27.0135 54.0575 28.157 54.0788 29.4567H49.6576ZM68.7158 29.4567C68.6306 28.5973 68.2648 27.9297 67.6185 27.4538C66.9722 26.978 66.0951 26.7401 64.9871 26.7401C64.2343 26.7401 63.5986 26.8466 63.0802 27.0597C62.5617 27.2656 62.164 27.5533 61.887 27.9226C61.6171 28.2919 61.4822 28.7109 61.4822 29.1797C61.468 29.5703 61.5496 29.9112 61.7272 30.2024C61.9119 30.4936 62.164 30.7457 62.4836 30.9588C62.8032 31.1648 63.1725 31.3459 63.5915 31.5021C64.0106 31.6513 64.458 31.7791 64.9339 31.8857L66.8941 32.3544C67.8458 32.5675 68.7194 32.8516 69.5148 33.2067C70.3103 33.5618 70.9992 33.9986 71.5816 34.517C72.164 35.0355 72.615 35.6463 72.9346 36.3494C73.2613 37.0526 73.4282 37.8587 73.4353 38.7678C73.4282 40.103 73.0873 41.2607 72.4126 42.2408C71.745 43.2138 70.779 43.9702 69.5148 44.5099C68.2577 45.0426 66.7414 45.3089 64.9658 45.3089C63.2045 45.3089 61.6704 45.0391 60.3636 44.4993C59.0638 43.9595 58.0482 43.1605 57.3167 42.1023C56.5923 41.0369 56.2123 39.7195 56.1768 38.1499H60.6406C60.6903 38.8814 60.8998 39.4922 61.2691 39.9822C61.6455 40.4652 62.1462 40.831 62.7712 41.0795C63.4033 41.321 64.1171 41.4418 64.9126 41.4418C65.6938 41.4418 66.3721 41.3281 66.9474 41.1009C67.5298 40.8736 67.9808 40.5575 68.3004 40.1527C68.62 39.7479 68.7798 39.2827 68.7798 38.7571C68.7798 38.267 68.6342 37.8551 68.343 37.5213C68.0589 37.1875 67.6398 36.9034 67.0859 36.669C66.539 36.4347 65.8678 36.2216 65.0724 36.0298L62.6967 35.4332C60.8572 34.9858 59.4048 34.2862 58.3394 33.3345C57.2741 32.3828 56.745 31.1009 56.7521 29.4886C56.745 28.1676 57.0965 27.0135 57.8067 26.0263C58.5241 25.0391 59.5077 24.2685 60.7577 23.7145C62.0077 23.1605 63.4282 22.8835 65.0191 22.8835C66.6384 22.8835 68.0518 23.1605 69.2592 23.7145C70.4737 24.2685 71.4183 25.0391 72.093 26.0263C72.7677 27.0135 73.1157 28.157 73.137 29.4567H68.7158ZM91.6991 22.1591L84.6678 48.2812H80.758L87.7893 22.1591H91.6991ZM109.17 38.1499L94.1699 44.755V40.4403L104.44 36.3175L104.301 36.5412V36.0085L104.44 36.2322L94.1699 32.1094V27.7947L109.17 34.3999V38.1499Z" fill="#111827"/>
<path d="M333 34H349" stroke="#4B5563" stroke-width="2" stroke-linecap="round" stroke-linejoin="round"/>
<path d="M333 28H349" stroke="#4B5563" stroke-width="2" stroke-linecap="round" stroke-linejoin="round"/>
<path d="M333 40H349" stroke="#4B5563" stroke-width="2" stroke-linecap="round" stroke-linejoin="round"/>
</svg>
